<svg width="48" height="48" viewBox="0 0 48 48" fill="none" xmlns="http://www.w3.org/2000/svg">
<rect width="48" height="48" rx="24" fill="#E1EED9"/>
<path d="M32.33 15.67C32.1408 15.4822 31.9035 15.3501 31.6442 15.2884C31.3849 15.2266 31.1135 15.2376 30.86 15.32L16.23 20.2C15.9587 20.286 15.7189 20.4504 15.541 20.6726C15.3631 20.8948 15.255 21.1647 15.2304 21.4482C15.2058 21.7318 15.2657 22.0163 15.4027 22.2658C15.5397 22.5153 15.7475 22.7186 16 22.85L22.07 25.85L25.07 31.94C25.1906 32.1784 25.3751 32.3785 25.6029 32.518C25.8307 32.6575 26.0929 32.7309 26.36 32.73H26.46C26.7461 32.7089 27.0192 32.6023 27.2439 32.424C27.4686 32.2456 27.6345 32.0038 27.72 31.73L32.67 17.14C32.7584 16.8879 32.7734 16.6159 32.7132 16.3557C32.653 16.0955 32.5201 15.8577 32.33 15.67ZM16.85 21.58L29.62 17.32L22.53 24.41L16.85 21.58ZM26.43 31.15L23.59 25.47L30.68 18.38L26.43 31.15Z" fill="#294938"/>
</svg>
